<?xml version="1.0" encoding="UTF-8"?>
<svg id="uuid-f14a3522-7868-47a0-a7be-f8c4163553cf" data-name="Layer 1" xmlns="http://www.w3.org/2000/svg" viewBox="0 0 167.72 196.32">
  <path d="M167.68,99.51c-1.34-8.76-8.08-14.31-10.54-16.08-.42-.3-.45-.91-.06-1.24,.63-.53,1.37-1.32,1.37-2.09,0-1.34-4.5-4.09-8.18-4.09-2.22,0-3.88,.24-4.86,.43-.44,.09-.82-.32-.7-.76,.73-2.69,2.56-10.25,1.4-15.1-4-16.77-11.28-16.29-16.78-22.55-5.5-6.26-15.68-28.19-16.36-29.63S109.54,0,102.46,0c-5.09,0-7.88,2.61-7.88,2.61C60.32,29.29,51.47,53.26,51.47,53.26c-3.77-1.63-6.21-2.31-8.96-2.11-9.43,.69-10.35,7.78-10.4,10.08,0,.41-.29,.76-.68,.87-.93,.25-2.46,.85-2.46,2.12,0,3.37,1.71,6.76,2.29,7.82,.09,.16-.01,.35-.19,.37-1.22,.16-4.99,.95-4.99,4.64,0,5.76,6.35,9.7,8.34,10.79,.36,.2,.58,.59,.57,1l-.09,2.27c-.04,.98,.31,1.94,.98,2.65,.41,.44,.83,.93,1.04,1.29,.46,.82,0,1.79,0,1.79-1.67,3.27-3.56,7.14-4.79,10.17-.2,.48-.72,.73-1.22,.59-2.17-.61-8.08-1.87-14.38,.22-.21,.07-.16,.39,.07,.38,1.78-.06,5.03-.1,7.04,.29,.31,.06,.3,.5-.01,.54-3.31,.46-12.22,2.39-17.53,10.15-.58,.85-.54,1.98,.12,2.78l1.19,1.45c.3,.37,.27,.91-.07,1.24-1.78,1.72-6.82,7.06-7.31,12.72-.32,3.71,4.31,4.26,4.31,4.26,0,0-.08,4.94,.75,8.46,.07,.3,.25,.57,.49,.76l1.15,.89c.43,.33,1.03,.37,1.5,.08,.55-.34,1.33-.89,2.16-1.71,0,0,2.27,10.59,9.35,13.06,1.97,.69,3.21-1.42,3.21-1.42,0,0,5.61,9.58,16.34,14.74,9.1,4.38,31.53,16.04,38.11,19.46,1.11,.58,2.46,.48,3.47-.25,2.96-2.15,9.46-6.62,15.28-8.96,7.84-3.16,25.23-11.41,25.23-11.41,0,0,7.98-4.61,10.73-9.63,0,0,2.84-1.11,4.03-2.48,2.22-2.54,5-8.57,5-8.57l2.01,.56s1.31,.58,1.89-1.34c.57-1.88,2.39-9,.2-15.6-.08-.25,.09-.52,.35-.55l1.7-.22c1.5-.19,2.45-1.69,1.99-3.13-.76-2.38-2.88-6.19-8.61-11.16l1.81-2.02c1.01-1.13,.56-2.91-.85-3.45-2.37-.91-6.33-1.89-11.95-1.64-.3,.01-.42-.4-.15-.54,1.17-.62,3.35-1.64,6.64-2.69,0,0-3.23-1.24-10.48,1.75,0,0-1.24-7.87-2.38-12.17,5.82,.34,7.64-3.98,7.64-3.98,.83,5.18,1.56,7.06,2.52,7.88,.96,.83,2.8,.5,2.8,.5,0,0,4.01,11.23,11,11.23,2.11,0,3.39-1.88,3.39-1.88,0,0,2.66,2.34,4.81,1.42,6.79-2.89,7.24-15.08,7.24-15.08,5.78,2.34,5-3.03,5-3.03Zm-40.34-19.49c-.8-.25-1.18-1.17-.78-1.91,.67-1.28,1.29-3.39,.28-6.1-1.26-3.4-5.42-4.25-7.48-4.47-.71-.07-1.28-.6-1.41-1.3l-2.04-10.81c-.03-.14,.12-.25,.24-.18,11.96,6.15,16.06,26.29,16.06,26.29l-4.86-1.52Z" style="fill: #231f20;"/>
  <path d="M136.92,129.08c1.97,3.21,7.12,12.27,6.27,17.87-.03,.19-.29,.22-.36,.03-.28-.78-.75-2.15-1.07-3.25-.05-.16-.28-.16-.32,.01-.49,2.34-2.35,10.21-5.81,14.25l.22-5.45c0-.17-.21-.25-.32-.11-1.2,1.62-5.27,7.15-7.13,10.14-2.2,3.53-7.19,8.25-15.77,12.06-3.4,1.51-7.82,3.84-12.74,6.1-6.87,3.15-14.38,6.51-18.99,9.97-.74,.55-1.73,.62-2.54,.16-4.27-2.4-17.46-9.76-24.62-12.84-8.62-3.71-20.47-10.26-25.44-16.68-3.53-4.57-5.57-8.28-9.15-20.45-.12-.39-.69-.31-.68,.1l.11,14.74c0,.47-.62,.63-.84,.23-1.24-2.19-3.39-6.41-3.45-9.47-.09-4.31,1.01-14.76,1.01-14.76,0,0-2.93,2.77-7.19,11.79,0,0-2.02-3.95,6.1-16.93l-5.77,3.98c-.12,.08-.27-.05-.2-.18,.68-1.23,3.31-5.04,12.7-13.02,0,0-3.47,.42-6.14,.98-.31,.06-.49-.33-.25-.52,1.8-1.47,6.84-4.48,17.36-3.91,1.16,.06,2.21-.66,2.59-1.76,1.47-4.4,5.66-15.41,12.55-22.24,2.07,1.34,7.64,4.74,10.88,4.74,4.03,0,5.04-.41,5.04-.41,0,0,.5,8.66,8.98,8.66s15.35-2.8,15.35-2.8c3.12,6.37,8.71,6.6,12.19,6.6s5.09-4.08,5.09-4.08c0,0,5.68,3.48,9.49,3.48,2.18,0,3.37-.87,3.98-1.62,.79,2.31,1.95,6.42,1.95,10.81,0,6.67,1,5.95,1.93,5.88,.93-.07,7.15-3.82,15.23-.83l-6.15,2.15c-.4,.14-.37,.72,.05,.81,2.96,.65,9.39,2.65,12.5,8.07l-6.1-2.88c-.36-.17-.73,.23-.52,.58Z" style="fill: #94bb5d;"/>
  <path d="M37.9,133.74c-.04,.22-.33,.27-.44,.08-1.04-1.77-4.53-7.45-6.46-7.45-2.29,0-4.08,4.72-4.08,7.98s1.75,9.91,9.81,17.14c14.58,13.08,30.79,15.81,42.37,29.79,.14,.17,.41,.14,.5-.07l1.29-2.86,.05,.67c0,.14,.18,.2,.28,.11,1.57-1.5,10.25-9.58,20.69-14.53,5.33-2.52,8.67-3.71,13.61-6.6,7.53-4.4,11.34-10.14,11.34-18.08,0,0-.03-10.52-6.39-10.52-1.53,0-3.43,1.25-4.68,2.23-.4,.31-.96-.08-.81-.56l.78-2.56-1.3-.7c-.17-.09-.11-.34,.08-.35l1.32-.02s2.68-2.61,5.84-2.61,9.24,1.39,11.23,7.91c.04,.12-.1,.21-.2,.13-.93-.82-3.75-3.21-5.86-4.11-.15-.07-.29,.12-.18,.24,.57,.64,1.59,1.81,2.19,2.7,.2,.3,.32,.65,.34,1.02,.08,1.5,.32,5.99,.32,8.46,0,0,.58,13.66-14.85,21.19-7.95,3.88-20.9,8.15-34.06,22.59l-.53,3.32c-.05,.33-.51,.36-.61,.04l-.42-1.42c-.77-2.6-2.2-4.94-4.16-6.81h0c-1.19-1.13-2.49-2.12-3.89-2.97l-16.01-9.69c-.45-.27-.91-.52-1.38-.76-4.43-2.19-29.92-15.52-29.92-32.59,0,0-.03-4.5,2.76-7.09,.08-.07,0-.2-.1-.15-1.25,.64-3.75,1.94-5.37,2.89-.14,.08-.3-.08-.21-.22l2.22-3.3-3.63,.79c-.11,.02-.19-.1-.12-.19,.8-.97,3.97-4.3,9.59-3.76,7.16,.68,9.7,6.95,9.04,10.71Z" style="fill: #231f20;"/>
  <path d="M81.32,150.89c-.16-.3-.62-.17-.6,.17,.22,3.32,.78,12.53,.78,20,0,3.29-.37,5.67-.5,6.42-.01,.07,.08,.11,.13,.06,.63-.79,2.76-4.24,2.76-14.72,0-6.25-1.62-10.16-2.57-11.92Z" style="fill: #231f20;"/>
  <path d="M114.59,119.55l-3.38-3.22,1.93-.53s.04-.05,0-.07c-.43-.22-2.51-1.2-4.18-1.2-1.19,0-3.99,.57-5.16,1.17-.95,.48-3.76,1.54-4.78,1.92-.09,.03-.15-.08-.09-.14l3.12-3.02c.25-.24,.02-.65-.31-.58-6.47,1.49-11.28,10.09-11.28,10.09,0,0-4.77,6.88-6.6,6.88s-2.84-3.87-2.84-3.87c0,0-.44-1.72-.44-6.28s3.9-7.98,4.76-8.71c.86-.73,.64-1.38,.64-1.38-5.02,1.34-6.84,6.67-7.28,8.25-.06,.2-.31,.28-.47,.15l-4.68-3.89s-.11,.02-.08,.07c.38,.54,1.21,1.74,2.19,3.09,1.69,2.33,3.75,4.54,3.75,7.29,0,3.49-.71,5.33-.95,5.86-.04,.1-.15,.14-.25,.1-2.45-.94-6.38-6.67-11.58-10.73-1.69-1.32-4.19-1.78-4.98-1.89-.09-.01-.16,.09-.11,.17l1.45,2.12c.29,.43-.23,.94-.65,.64l-9.31-6.59c-.19-.14-.46,.04-.4,.27l.6,2.49c.09,.37-.36,.62-.63,.36l-5.62-5.51c-.12-.12-.33-.03-.32,.15l.17,2.64-3.25-2.08c-.55-.35-1.16,.36-.72,.85l8.19,9.07c.29,.32,.36,.78,.18,1.17-.44,.97-1.03,2.54-1.3,3.26-.09,.24-.29,.41-.54,.45l-2.33,.42s-.04,.05,0,.07c.66,.27,4.08,1.78,6.87,4.25,3.09,2.75,7.01,8.42,8.7,10.28,1.29,1.42,3.33,2.03,4.21,2.24,.15,.04,.27-.14,.17-.26l-2.46-3.37c-.1-.14-.04-.34,.13-.4l4.48-1.57c-2.53,2.91-.01,6.42,.71,7.31,.1,.13,.28,.17,.42,.1,.65-.31,2.51-1.12,3.99-1.12,2.2,0,2.61,1.99,5.43,1.99,2.27,0,2.75-1.68,4.4-1.68,3.14,0,6.36,.6,7.31,.8,.12,.02,.22-.09,.18-.21-.2-.52-.44-1.3-.61-1.87-.13-.44,.04-.91,.43-1.16,1.28-.83,4.14-2.71,5.47-3.88,1.75-1.55,3.68-4.57,4.85-5.64,1.07-.98,9.98-4.81,11.4-5.42,.06-.03,.06-.12-.01-.14-2.59-.69-4.07-.04-4.64,.12-.34,.1-.67,.12-.9,.12-.16,0-.31-.1-.38-.25-1.24-2.73-3.48-6.4-4.14-7.45-.08-.13,0-.3,.16-.3l.85-.03c.16,0,.31-.11,.35-.27l.36-1.2,4.39,1.34c.23,.07,.44-.16,.35-.38l-.72-1.83,5.6,.96c.21,.04,.34-.22,.19-.37Zm-27.55,25.91c-1.03,0-.18-1.31-1.65-1.31-2.54,0-1.67,1.6-5.45,1.6-5.43,0-9.49-1.6-9.49-1.6,0,0-.34-1.97,1.51-2.98,1.86-1.01,3.14-1.58,3.14-1.58l.27,.27c.26,.26,.69,.27,.96,.01,.81-.78,2.51-2.23,3.88-2.23,1.88,0,3.08,2.08,4.65,2.82,.73,.34,1.33,.18,1.7,.41s2.27,1.88,2.27,2.84-.73,1.74-1.79,1.74Zm4.51-4.1h-1.21c-1.26-2.25-2.93-2.48-4.93-3.25s-2.48-2.51-4.86-2.51c-2.68,0-2.13,1.36-4.81,2.3-.84,.29-4.45,.64-4.45,.64v-.73c.48-.71,2.22-5.16,2.22-5.16,0,0,1.83,.76,3.96,.76s3.16-2.15,3.16-2.15c0,0,1.35,2.22,2.96,2.22s3.78-1.03,3.78-1.03c0,7.24,4.01,8.04,4.29,8.41,.27,.37-.11,.5-.11,.5Z" style="fill: #231f20;"/>
  <path d="M68.51,129.06c-.11-.02-.21,.05-.23,.16-.15,.95-1.03,5.2-4.58,4.86-5.35-.52-4.08-6.69-3.8-7.8,.02-.1-.03-.2-.13-.24-.76-.29-3.86-1.42-4.64-1.38-.89,.05-1.76,1.17-2.13,2.18s-.6,1.97-.18,2.54,3.42,2.22,5.16,4.22c2.13,2.45,3.44,5.27,5.18,5.27s7.47-.57,7.47-6.67c0,0,.07-2.73-2.11-3.13Z" style="fill: #efdc4a;"/>
  <path d="M92.08,129.97c0-.08-.09-.13-.15-.08-.47,.32-1.89,1.32-2.02,1.78-.16,.55-.37,3.08,.64,4.64,1.1,1.7,1.99,2.35,3.23,2.35,2.5,0,4.49-3.62,5.98-4.97,0,0,2.45-1.86,3.71-3.05s.87-3.92-.07-5.43-2.63-2.7-4.24-1.57c-.09,.06-.13,.17-.12,.27,.09,.71,.41,3.53,.41,5.56,0,2.34-2.54,4.19-3.25,4.42s-4.04,1.1-4.12-3.92Z" style="fill: #efdc4a;"/>
  <path d="M38.31,76.66c.17,.15,.02,.43-.2,.38-2.32-.58-8.28-1.91-8.58-.36-.37,1.93,1.42,3.76,4.21,5.82s6.77,5.05,6.77,5.05c0,0,1.85,1.34,3.58-.38,1.28-1.28-.91-4.09-.34-7.48,.02-.11,.17-.11,.19,0,.48,2.28,3.19,11.67,15,11.67,5.74,0,6.46-1.51,7.39-2.58s2.13-1.62,3.44-1.72c0,0-3.13,3.82-3.13,7.15s2.65,5.5,8.63,5.5,11.45-2.34,11.45-2.34l.36-2.62c.04-.26,.4-.3,.48-.05,.89,2.55,3.77,8.76,10.53,8.76,5.32,0,3.98-5.33,3.64-6.46-.02-.06,.05-.1,.09-.06,.99,.9,6.46,5.66,11.18,5.66s2.06-6.97,.56-10.21c-.08-.18,.16-.33,.28-.18,1.82,2.22,5.78,6.23,10.61,6.23,5.8,0,.48-7.13-2.94-9.94-.14-.12,0-.35,.16-.27,1.57,.66,4.25,1.86,5.77,2.93,2.23,1.58,3.37-.45,3.54-2.44s-.96-5.91-5.78-5.91-7.53,.58-7.53,.58c0,0,.79-1.68,3.75-2.51s2.41-4.47,2.41-5.84-1.86-3.47-4.26-3.47-6.6,2.43-6.95,7.26c-.02,.23-.3,.32-.45,.15-1.26-1.39-5.18-5.21-10.16-5.21s-7.99,2.49-8.91,3.39c-.15,.15-.41,.12-.52-.07-.81-1.42-3.98-6.31-9.82-7.86-5.36-1.42-9.82,.23-11.53,1.03-.29,.13-.6-.12-.53-.43,.15-.64,.31-1.52,.23-2.16-.14-1.12-3.78-5.52-11.86-5.52-2.69,0-4.24,.14-5.07,.26-.23,.03-.36-.25-.19-.41l2.12-1.91s-2.91-2.13-10.33-.44c-.13,.03-.21-.14-.1-.22l4.43-3.37c.14-.1,.11-.32-.05-.38-.96-.39-3.71-1.4-6.62-1.4-3.61,0-8.39,2.37-8.39,7.7,0,4.79,1.44,5.83,2.39,8.86,.08,.26-.25,.44-.43,.23l-4.88-5.93s-1.07-.52-.34,1.68c.68,2.06,3.35,6.76,6.71,9.84Z" style="fill: #fff;"/>
  <path d="M143.09,94.57s-4.98-2.72-8.11-6.57c0,0-3.13,5.67-.17,11.55,0,0,1.44-3.47,1.58-4.3,0,0,3.58,17.5,11.38,19.42,0,0,.87-7.97,1.17-12.05,.04-.48,.69-.59,.88-.15,.82,1.85,2.05,4.94,2.58,7.77,.93,4.95,2.31,3.73,2.92,2.96,1.59-2.02,3.16-4.06,3.16-10.62,0,0,.17-5.23-3.2-10.42,0,0,3.56,2.44,8.86,8.15,0,0-.14-4.06-3.94-9.65-3.8-5.59-10.54-7.33-10.54-7.33,0,0-1.95-.64-1.95-1.35s1.49-1.76,5.06-1.56c0,0-1.38-1.42-4.54-1.42s-6.49,1.56-6.49,7.29,1.33,8.28,1.33,8.28Z" style="fill: #fff;"/>
  <path d="M53.64,55.28s4.58,3.21,5.87,3.53,5.64,.09,8.43,1.42,5.55,4.58,5.82,6.42c0,0,4.63-2.29,9.3-.87s9.5,4.64,10.63,7.33c0,0,5.18-3.53,9.99-2.8s7.61,4.03,7.61,4.03c0,0,1.4-2.33,2.84-4.35,.23-.32,.27-.72,.12-1.08-.85-1.99-3.55-8.75-3.39-13.77,0-.13-.17-.19-.24-.08-.38,.58-1.08,1.72-1.38,2.75-.44,1.47-3.16,2.91-5.89,.69-2.07-1.69-4.42-3.5-5.43-4.27-.08-.06,0-.18,.08-.14l7.02,2.9s2.08,.77,2.54-.87c.32-1.15-1.93-.46-3.39-.99s-7.14-2.9-8.94-17.94c-.01-.11,.14-.16,.19-.06,.68,1.35,2.67,5.2,4.77,8.49,1.56,2.44,3.1,4.43,4.46,5.24,3.16,1.88,4.58-.32,8.25-.32s10.04,2.57,15.68,12.74c5.64,10.18,5.73,14.76,5.73,14.76,0,0,.55,6.42,3.8,9.53,0,0,2.66-11.23,3.58-13.66s.09-7.52-.6-10.27c-.69-2.75-1.56-10.59-6.6-14.16s-13.7-10.86-18.56-22.5-9.99-21.27-13.02-21.27-13.66,2.02-49.27,49.55Z" style="fill: #c3312f;"/>
  <path d="M35.29,119.42l8.2,5.57s.21,.16,.5-.14-.23-.79-.39-.95-4.25-4.69-8.32-4.48Z" style="fill: #231f20;"/>
</svg>