<?xml version="1.0" encoding="utf-8"?>
<!-- Generator: Adobe Illustrator 26.5.1, SVG Export Plug-In . SVG Version: 6.00 Build 0)  -->
<svg version="1.1" id="Layer_1" xmlns="http://www.w3.org/2000/svg" xmlns:xlink="http://www.w3.org/1999/xlink" x="0px" y="0px"
	 viewBox="0 0 100 70" style="enable-background:new 0 0 100 70;" xml:space="preserve">
<style type="text/css">
	.st0{fill:#2B0B52;}
</style>
<path class="st0" d="M97.8,11.3c0-3.9-3.2-7.1-7.1-7.1l0,0H10c-3.6,0-6.7,2.8-7.1,6.3v49c0.4,3.6,3.4,6.3,7.1,6.3h80.7
	c3.9,0,7.1-3.2,7.1-7.1L97.8,11.3z M85.4,55.1c-0.5,0.6-1.2,0.9-1.9,0.9c-0.5,0-1-0.2-1.4-0.5L59.1,38l-5.9,4.5
	c-1.7,1.3-4.1,1.3-5.8,0L41.6,38l-23,17.6c-1,0.8-2.5,0.6-3.3-0.4c-0.8-1-0.6-2.5,0.4-3.3l22-16.8l-22-16.8c-1-0.8-1.2-2.3-0.4-3.3
	c0.8-1,2.3-1.2,3.3-0.4l31.8,24.3l7.3-5.6c0,0,0,0,0,0l24.5-18.7c1-0.8,2.5-0.6,3.3,0.4c0.8,1,0.6,2.5-0.4,3.3L63,35l22,16.8
	C86,52.6,86.2,54.1,85.4,55.1z"/>
</svg>
