<?xml version="1.0" encoding="utf-8"?>
<!-- Generator: Adobe Illustrator 26.5.1, SVG Export Plug-In . SVG Version: 6.00 Build 0)  -->
<svg version="1.1" id="Layer_1" xmlns="http://www.w3.org/2000/svg" xmlns:xlink="http://www.w3.org/1999/xlink" x="0px" y="0px"
	 viewBox="0 0 1440 320" style="enable-background:new 0 0 1440 320;" xml:space="preserve">
<style type="text/css">
	.st0{fill:#F9F9FF;}
</style>
<path class="st0" d="M0,320l30-37.3C60,245,123.2,177.2,180,144c65-38,125.8-44.1,186-42c170,6,163,100,324,96
	c107-2.7,270-72.8,335-100c67-28,174-54,235-54c60,0,99.3,6.8,135.9,12.4C1419,60,1440,67,1440,67V0h-30c-30,0-90,0-150,0
	s-120,0-180,0S960,0,900,0S780,0,720,0S600,0,540,0S420,0,360,0S240,0,180,0S60,0,30,0H0V320z"/>
</svg>
